<?xml version="1.0" standalone="no"?>
<!DOCTYPE svg PUBLIC "-//W3C//DTD SVG 20010904//EN"
 "http://www.w3.org/TR/2001/REC-SVG-20010904/DTD/svg10.dtd">
<svg version="1.0" xmlns="http://www.w3.org/2000/svg"
 width="1024.000000pt" height="1024.000000pt" viewBox="0 0 1024.000000 1024.000000"
 preserveAspectRatio="xMidYMid meet">
<metadata>
Created by potrace 1.14, written by Peter Selinger 2001-2017
</metadata>
<g transform="translate(0.000000,1024.000000) scale(0.100000,-0.100000)"
fill="#000000" stroke="none">
<path d="M0 5120 l0 -5120 5120 0 5120 0 0 5120 0 5120 -5120 0 -5120 0 0
-5120z m5425 3535 c1419 -8 1997 -15 2030 -25 17 -5 57 -14 90 -20 106 -21
240 -62 252 -77 7 -9 19 -13 27 -10 9 4 18 2 21 -3 4 -6 30 -22 58 -36 84 -41
142 -80 139 -93 -1 -7 2 -10 8 -6 11 7 121 -66 114 -76 -5 -8 59 -65 69 -61 5
1 6 -1 3 -6 -3 -5 15 -31 40 -58 27 -29 43 -55 41 -66 -3 -9 0 -15 7 -12 6 2
26 -17 43 -44 37 -53 44 -77 13 -41 -12 13 -3 -5 20 -40 22 -35 40 -70 40 -78
0 -7 4 -13 10 -13 5 0 14 -19 20 -41 6 -23 15 -49 20 -58 15 -27 50 -145 73
-243 l21 -93 3 -2300 c2 -1477 0 -2336 -6 -2400 -19 -187 -86 -370 -198 -539
-150 -226 -399 -418 -648 -499 -167 -54 -43 -52 -2585 -52 -2632 0 -2424 -5
-2628 67 -452 159 -778 579 -812 1048 -5 69 -10 784 -10 1590 0 806 -4 1557
-10 1670 -12 268 -23 1400 -14 1491 5 49 10 67 16 57 7 -9 8 -5 4 13 -3 14 -3
29 1 33 4 3 8 17 10 29 7 50 78 236 114 300 21 38 39 73 39 78 0 5 4 9 8 9 5
0 15 15 24 33 17 34 54 82 100 130 15 16 31 34 35 42 11 19 141 126 188 155
22 13 42 28 43 32 2 4 9 8 16 8 6 0 19 9 29 20 9 11 24 20 32 20 14 0 53 18
65 30 3 3 20 13 39 23 24 13 36 15 41 7 5 -8 9 -7 13 3 3 8 18 18 34 21 15 4
42 13 58 21 17 7 57 18 90 25 33 6 71 14 85 17 106 22 414 30 1045 27 374 -2
1103 -6 1620 -9z"/>
<path d="M2860 8359 c-96 -8 -157 -22 -249 -54 -68 -24 -148 -62 -161 -75 -3
-3 -25 -18 -50 -32 -25 -15 -60 -40 -78 -57 -18 -17 -38 -31 -43 -31 -6 0 -7
-4 -4 -10 3 -5 1 -10 -5 -10 -18 0 -111 -100 -152 -161 -85 -130 -164 -313
-153 -358 4 -17 3 -21 -3 -12 -13 19 -33 -88 -43 -229 -12 -183 -11 -4515 1
-4604 12 -85 53 -210 100 -306 48 -99 60 -120 71 -120 5 0 9 -6 9 -12 1 -7 16
-31 36 -53 19 -22 31 -31 27 -20 -6 17 -5 18 9 5 8 -8 13 -21 10 -29 -4 -11
-1 -13 12 -8 14 5 17 3 12 -8 -3 -9 0 -15 8 -15 7 0 21 -9 31 -20 10 -11 22
-20 27 -20 12 0 39 -27 37 -37 -3 -20 3 -23 24 -12 12 6 19 8 15 4 -4 -4 18
-21 50 -38 31 -16 60 -36 64 -42 5 -7 17 -11 28 -8 12 3 20 0 20 -7 0 -8 9
-10 28 -6 15 3 20 2 12 -1 -12 -5 92 -42 165 -59 68 -15 166 -24 278 -24 70 0
127 -3 127 -7 0 -5 107 -10 238 -12 333 -6 4034 -7 4109 -1 51 4 59 7 50 19
-10 12 -9 13 8 4 24 -13 70 -6 85 13 6 7 18 10 26 7 8 -3 22 1 31 8 25 22 87
48 97 42 5 -4 6 -2 3 4 -3 5 19 20 49 33 30 13 54 28 54 32 0 4 6 8 14 8 8 0
21 9 29 20 8 11 16 18 19 15 6 -7 148 132 148 145 0 6 4 9 9 5 5 -3 12 3 15
13 4 10 22 36 42 57 34 38 70 95 59 95 -3 0 4 9 15 20 11 11 20 29 20 40 0 11
7 23 14 26 24 9 73 172 81 266 2 24 10 62 19 83 9 21 14 48 11 59 -5 17 -4 18
4 6 8 -11 11 284 10 1030 0 585 -4 1050 -9 1055 -12 14 -18 160 -26 550 -10
488 -10 715 0 715 5 0 3 7 -4 15 -7 8 -10 29 -8 45 3 17 1 33 -4 36 -4 3 -4
13 2 23 5 10 7 21 4 23 -2 3 -6 277 -9 610 -2 444 -7 616 -16 649 -7 24 -13
49 -14 54 0 6 -7 24 -15 40 -7 17 -14 32 -14 35 -5 20 -32 70 -39 70 -5 0 -6
4 -3 9 8 13 -116 175 -182 238 -115 109 -277 202 -440 251 l-87 27 -2290 0
c-1259 0 -2324 -2 -2365 -6z m1201 -618 c63 -12 138 -27 167 -35 62 -18 222
-95 222 -107 0 -5 6 -9 13 -9 6 0 29 -16 49 -35 20 -19 40 -35 45 -36 17 -1
163 -196 163 -217 0 -6 3 -12 8 -14 13 -6 52 -132 52 -170 0 -20 4 -48 10 -62
5 -14 6 -26 2 -26 -4 0 -12 -10 -17 -22 -7 -15 -17 -22 -30 -20 -38 5 -66 4
-72 -2 -16 -16 -22 -338 -24 -1386 -3 -1038 -2 -1119 14 -1170 17 -54 66 -145
68 -125 0 6 4 -1 10 -13 5 -13 18 -26 29 -29 11 -3 18 -9 15 -13 -4 -7 101 9
190 30 91 21 247 46 345 54 317 27 1066 22 1250 -8 126 -21 228 -53 315 -99
60 -32 175 -120 175 -134 0 -7 6 -13 12 -13 21 0 120 -113 164 -187 25 -42 50
-102 64 -157 22 -84 22 -90 6 -117 -15 -25 -16 -42 -7 -141 11 -130 2 -231
-29 -333 -64 -208 -202 -366 -405 -465 -170 -84 -101 -80 -1517 -80 -833 0
-1263 4 -1311 11 -248 37 -463 161 -632 364 -28 33 -54 63 -58 66 -5 3 -8 9
-8 13 2 13 -36 65 -43 59 -4 -4 -4 0 0 10 4 11 1 17 -7 17 -7 0 -10 3 -6 6 3
3 -8 32 -24 64 -16 32 -29 62 -28 67 2 4 -3 19 -9 33 -14 31 -46 168 -66 280
-15 89 -17 106 -41 550 -8 151 -17 300 -20 330 -3 30 -7 141 -10 245 -4 181
-13 366 -35 720 -5 88 -12 246 -15 350 -6 179 -33 688 -41 765 -2 19 -5 112
-6 205 -5 329 71 557 244 729 128 128 318 226 488 252 25 4 50 9 57 13 29 15
176 11 284 -8z m4309 -2873 c0 -7 -5 -20 -10 -28 -8 -12 -10 -9 -10 13 0 15 5
27 10 27 6 0 10 -6 10 -12z m-13 -290 c-2 -13 -4 -3 -4 22 0 25 2 35 4 23 2
-13 2 -33 0 -45z m10 -320 c-2 -13 -4 -3 -4 22 0 25 2 35 4 23 2 -13 2 -33 0
-45z"/>
<path d="M3885 7283 c-162 -19 -314 -139 -365 -289 -19 -55 -20 -99 -20 -1885
0 -1815 0 -1829 20 -1871 11 -23 20 -46 20 -52 0 -5 15 -26 33 -45 17 -18 25
-30 17 -26 -8 4 -6 -1 5 -12 11 -11 23 -19 27 -16 4 2 20 -7 35 -21 15 -15 33
-26 40 -26 7 0 13 -5 13 -11 0 -6 7 -9 15 -5 8 3 15 0 15 -7 0 -7 11 -14 24
-15 13 -1 48 -10 78 -21 64 -24 120 -38 173 -46 22 -3 60 -10 85 -15 49 -10
206 -29 310 -36 36 -2 103 -9 150 -15 101 -12 1822 -12 1950 0 157 15 296 75
386 166 62 62 91 118 81 156 -3 10 -1 17 4 13 5 -3 9 5 9 18 0 13 7 34 17 47
10 15 18 52 21 96 5 85 -13 159 -64 255 -19 35 -34 69 -34 74 0 12 -117 126
-130 126 -5 0 -18 10 -29 21 -12 13 -26 19 -35 16 -9 -4 -16 -3 -16 2 0 5 -12
11 -27 14 -16 3 -41 8 -58 12 -16 3 -397 8 -845 9 -692 2 -823 5 -870 17 -118
33 -236 104 -335 203 -44 44 -84 78 -89 77 -5 -1 -6 5 -3 14 4 8 3 15 -2 15
-4 0 -16 20 -26 45 -11 25 -22 40 -26 34 -4 -6 -9 4 -12 22 -3 19 -13 68 -21
109 -12 56 -17 143 -19 345 -1 158 -4 235 -8 185 l-5 -85 -4 85 c-2 47 -3 173
-3 280 0 129 -2 168 -6 115 l-6 -80 -8 140 c-4 77 -8 212 -8 300 0 176 -4 309
-18 641 -9 208 -22 307 -42 320 -12 7 -12 81 0 88 5 4 20 35 32 71 14 39 26
59 31 52 5 -8 8 -6 8 6 0 11 5 15 11 11 16 -10 2 50 -27 114 -28 63 -98 148
-153 186 -75 52 -212 88 -296 79z m133 -307 c15 -8 43 -31 62 -51 l35 -36 5
-1522 c5 -1421 6 -1525 23 -1566 22 -57 56 -111 69 -111 5 0 23 -9 39 -21 16
-11 34 -17 39 -14 6 4 16 2 23 -3 22 -17 271 -71 432 -92 88 -12 165 -25 170
-28 6 -4 318 -9 695 -12 l685 -5 40 -25 c22 -14 43 -25 48 -26 4 -1 8 -2 10
-4 4 -3 42 -10 80 -14 32 -3 37 -1 32 12 -3 9 -3 13 1 9 4 -3 20 5 36 18 99
83 242 27 242 -95 0 -57 -34 -117 -78 -136 -17 -7 -27 -13 -21 -14 15 0 -55
-60 -82 -71 -14 -5 -449 -9 -1043 -9 -1111 0 -1077 -2 -1231 58 -105 40 -256
141 -328 217 -108 116 -165 246 -202 465 -19 111 -19 165 -17 1535 l3 1420 24
49 c13 27 38 57 55 67 37 23 115 25 154 5z m-251 -638 c-2 -13 -4 -3 -4 22 0
25 2 35 4 23 2 -13 2 -33 0 -45z m590 -1145 c-2 -16 -4 -3 -4 27 0 30 2 43 4
28 2 -16 2 -40 0 -55z"/>
<path d="M4348 3293 c7 -3 16 -2 19 1 4 3 -2 6 -13 5 -11 0 -14 -3 -6 -6z"/>
<path d="M6647 3226 c-4 -10 -1 -13 9 -9 15 6 19 23 5 23 -5 0 -11 -7 -14 -14z"/>
<path d="M8345 8060 c3 -5 8 -10 11 -10 2 0 4 5 4 10 0 6 -5 10 -11 10 -5 0
-7 -4 -4 -10z"/>
</g>
</svg>
